<svg width="200" height="60" viewBox="0 0 200 60" fill="none" xmlns="http://www.w3.org/2000/svg">
  <!-- School Building -->
  <rect x="10" y="25" width="50" height="30" fill="#2563eb" rx="3"/>
  <path d="M5 25 L35 10 L65 25 L60 25 L35 15 L10 25 Z" fill="#1d4ed8"/>
  
  <!-- Windows -->
  <rect x="18" y="30" width="8" height="8" fill="#dbeafe" rx="1"/>
  <rect x="30" y="30" width="8" height="8" fill="#dbeafe" rx="1"/>
  <rect x="42" y="30" width="8" height="8" fill="#dbeafe" rx="1"/>
  
  <!-- Door -->
  <rect x="32" y="40" width="8" height="15" fill="#1e40af" rx="1"/>
  
  <!-- Graduation Cap -->
  <ellipse cx="35" cy="8" rx="12" ry="3" fill="#f59e0b"/>
  <rect x="23" y="8" width="24" height="2" fill="#d97706"/>
  <circle cx="35" cy="8" r="2" fill="#ffffff"/>
  
  <!-- Books -->
  <rect x="15" y="20" width="4" height="6" fill="#10b981" rx="1"/>
  <rect x="20" y="18" width="4" height="6" fill="#3b82f6" rx="1"/>
  <rect x="25" y="16" width="4" height="6" fill="#8b5cf6" rx="1"/>
  <rect x="30" y="18" width="4" height="6" fill="#f59e0b" rx="1"/>
  <rect x="35" y="20" width="4" height="6" fill="#ef4444" rx="1"/>
  
  <!-- School System Text -->
  <text x="80" y="25" font-family="Arial, sans-serif" font-size="18" font-weight="bold" fill="#1f2937">School</text>
  <text x="80" y="45" font-family="Arial, sans-serif" font-size="18" font-weight="bold" fill="#2563eb">System</text>
  
  <!-- Decorative Elements -->
  <circle cx="170" cy="15" r="3" fill="#f59e0b"/>
  <circle cx="175" cy="20" r="2" fill="#10b981"/>
  <circle cx="180" cy="15" r="2" fill="#3b82f6"/>
  <circle cx="185" cy="20" r="2" fill="#8b5cf6"/>
</svg>
